<svg xmlns="http://www.w3.org/2000/svg" xmlns:xlink="http://www.w3.org/1999/xlink" viewBox="0 0 315.22 489.87"><defs><style>.cls-1,.cls-5{fill:#e09f75;}.cls-1{opacity:0.86;}.cls-2,.cls-20,.cls-21,.cls-23{fill:#a48a7b;}.cls-2{opacity:0.5;}.cls-3{fill:#1f284d;}.cls-4{fill:#070912;}.cls-6{fill:#8e7572;}.cls-7{fill:#111426;}.cls-8{fill:#683032;}.cls-10,.cls-15,.cls-18,.cls-22,.cls-9{fill:none;}.cls-10,.cls-11,.cls-12,.cls-13,.cls-15{stroke:#1d1d1b;}.cls-10,.cls-11,.cls-12,.cls-13,.cls-15,.cls-18,.cls-19,.cls-21,.cls-22{stroke-miterlimit:10;}.cls-10,.cls-11,.cls-12,.cls-13,.cls-18,.cls-21,.cls-22{stroke-width:0.25px;}.cls-11{fill:#ad7560;opacity:0.54;}.cls-12{fill:#fde6d7;}.cls-13{fill:#eee8e8;}.cls-14{fill:#432918;}.cls-15,.cls-19{stroke-width:0.15px;}.cls-16{fill:url(#linear-gradient);}.cls-17{fill:#c58053;opacity:0.72;}.cls-18{stroke:#936037;}.cls-19{fill:#e0aa85;stroke:#7f2910;}.cls-21,.cls-22{stroke:#b17f4a;}.cls-23{opacity:0.57;}.cls-24{fill:#c6c6c6;}.cls-25,.cls-26,.cls-27,.cls-28{fill:#9d9d9c;}.cls-25{opacity:0.37;}.cls-26{opacity:0.49;}.cls-27{opacity:0.64;}.cls-28{opacity:0.52;}</style><linearGradient id="linear-gradient" x1="110.49" y1="117.53" x2="111.82" y2="119.84" gradientUnits="userSpaceOnUse"><stop offset="0.61"/><stop offset="1" stop-color="#fff"/></linearGradient></defs><title>Asset 2</title><g id="Layer_2" data-name="Layer 2"><g id="Layer_1-2" data-name="Layer 1"><path class="cls-1" d="M158.35,145.56q1.1,1-8.54,14.17l-7,2.29-4.59,1.15-2.76-1.29a25.47,25.47,0,0,1-2.58.81,25.21,25.21,0,0,1-3.73.66l-5.44-.23-4.32-1.56-1.54-1.94c-.29-1.27-.57-2.53-.86-3.79a23.12,23.12,0,0,1-.72-3.54,12.09,12.09,0,0,1,.17-3l-1-2-2.86-2.73-1-2.2c0-2,0-4,.08-6l-.88-1.92-1.89-.45-1.85-2.58c-.12-1.31-.25-2.61-.38-3.91a21.85,21.85,0,0,1,1.73-4.46,2.11,2.11,0,0,0,.32-.83,2.33,2.33,0,0,0-.2-1.27l-5.74-1.77-2-2.46v-4.13l2.85-5.1a36.45,36.45,0,0,0,2-3.39c.59-1.35.7-2.11,1.43-3.58a17.16,17.16,0,0,1,1.38-2.3l2-3.35,1.76-2.93-1.42-1.6-2.52-1.61a14.86,14.86,0,0,1-1.89-3.11c-.16-.36-.3-.71-.42-1.06s-.23-1-.32-1.58a17.54,17.54,0,0,1,0-5q.78-3.33,1.54-6.66l2.19-8.26,2.4-6.42L115.88,51c1.25-.59,3.14-1.46,5.49-2.46.57-.24,1.53-.65,2.08-.87a23,23,0,0,1,8.66-1.38,32.87,32.87,0,0,1,5.89.52,31,31,0,0,1,4.14,1l6.14,3.63c1.42,1.63,2.85,3.25,4.28,4.88-.63,3.27-1.25,6.54-1.88,9.81L152,74.33l2.37,6.47L159,83.12a7.4,7.4,0,0,1,3.89.77,7.54,7.54,0,0,1,2.85,2.49A28.39,28.39,0,0,0,167,90.31c.16.4.44,1,.77,2s.46,1.54.57,2c1.07,4.13,1.6,6.2,1.61,8.6a20.41,20.41,0,0,1-.23,3l1.14.57,2.07,1.26,1.63,1.89c.12-.36.24-.71.35-1.06l.27-3.86s1.53-2.06,2.19-2.06-.44-.46,0-1.15a4.55,4.55,0,0,0,.21-2.3l4.6-1.6,1.54-1.84,1.31-1.6,3.28-3,1.32-.23a14.85,14.85,0,0,1,2.18-.68,14.42,14.42,0,0,1,4.24-.33l5.49,2.33a5.71,5.71,0,0,1,2.3,1.76A5.93,5.93,0,0,1,205,98.12a10.86,10.86,0,0,1-.62,9c-.95,1.92-1.88,3.89-2.81,5.92-.63,1.39-1.25,2.77-1.83,4.13l-1.84,2.45c-.33.83-.66,1.66-1,2.49-.12.58-.23,1.16-.35,1.73l.57,6.63a13,13,0,0,0,.76,4.13,23.34,23.34,0,0,1,.84,2.44c.2.7.14.62.31,1.15a8.91,8.91,0,0,0,1.14,2.68,4,4,0,0,1,.46.76c.45,1,.41,1.6.46,3.51A23.93,23.93,0,0,0,202,151a32.5,32.5,0,0,0,1.68,5.81c1.28,3.24,2.46,4.67,4.43,8.72,1.07,2.19,1.82,4,2.25,5.11l-4.5,5.37-2.43,2.6-4.68,1.56-8.66,2.59-7.28,3.64a16.6,16.6,0,0,1-2.77,1.22s-.43.14-2.43.69a4.39,4.39,0,0,0-3.63,2.77,4,4,0,0,0,0,2.6l-2.08,1.56-13,19.41L146.69,199q-1.66-3.33-3.35-6.66L133.26,182c-.1-1.68-.2-3.36-.31-5v-3.67l1.8-5.46-.23-1.22Q156.82,144.21,158.35,145.56Z"/><path class="cls-2" d="M195.88,124.62c-3.67,17.47-6.65,34.09-6.65,34.09l-4,19.84-.46,4.92-17,13.33,8.22-42.9,6.53-30.5a16.69,16.69,0,0,0,13.42-3.67Z"/><path class="cls-3" d="M19.41,486.83c12.7-21.71,28.14-49.16,28.14-49.16l9.55-18,14.34-14.34v-9.42l5.32-22.53L69,363.12,62.78,352l-37-41.33c.24-4.4,4.14-65.83,34.73-75.47,20.55-6.48,49.37,11.63,69.91,24.54,18.93,11.9,23.44,19.42,38.89,21.76,13.52,2.06,26.75-1.17,32.87,6.95,2.7,3.57,3,8,2.78,11.11l19,11.11,6.95,9.72c1-.46,7.91-3.47,14.81,0a16.42,16.42,0,0,1,6.49,6,10.62,10.62,0,0,1,5.55,3.71c2.54,3.37,2.69,8.24.46,12.5v13.89l-10.64-4.17a98.66,98.66,0,0,1-22.41,8.33c-3.28.78-9.44,2.08-9.55,1.66-.24-.88,26.54-8.06,26.4-8.6s-27.46,3.6-44.42,15.15c-1.42,1-5.52,3.31-11,7a74.13,74.13,0,0,1-16,8.13l-16.24,13.8-10,14.87s-2.87,10.25-4.09,10.25-29.91,18.43-29.91,18.43l-11.06,17.2L88.64,472.49q-2.46,6.76-4.91,13.52L78,489.87Z"/><path class="cls-4" d="M108.46,66.18c-.63,0-1.23-1-2.42-3.11a19.09,19.09,0,0,1-1.22-2.43,17.77,17.77,0,0,1-.79-8.92c.47-3.12,1.3-3.65,1-5.81-.3-1.93-1-2-1.64-4-.94-3,0-5.81,1.11-9.36.77-2.37,1.37-4.14,3-5.89s2.2-1.39,3.51-2.79c2.16-2.31,1.46-4.3,2.9-8.65.78-2.33,1.82-5.46,4.51-8,2.08-1.94,2.47-1,8-4.53,2.26-1.45,3.09-2.19,4.87-2.57,1.63-.36,2.65-.11,5.59.35,4.8.74,7.2,1.11,9,1,4.72-.2,4.39-1.91,7.74-1.48,3,.39,4.41,1.94,8.3,1.88.61,0,.81-.05,2.39-.1a32.78,32.78,0,0,1,5.34,0c2.74.5,3.85,1.43,6.23,2.45,6.84,2.92,9.2.51,13.84,3.67,1.47,1,2.09,1.81,3.77,2.23s1.83-.23,6.26-.45c0,0,3.86-.2,6.26,1h0a4.11,4.11,0,0,1,1.77,1.3c.93,1.24,1.76,2.17,2.29,2.75,2.75,3,7.16,6.7,8.41,8.77a8.91,8.91,0,0,1,.77,1.59c.28.83.25,1.2.42,1.65a3.9,3.9,0,0,0,2.4,1.9C225,30,229.09,35.3,230.44,40c.26.89,0,.24.94,6a27,27,0,0,0,1.49,6.1,23.2,23.2,0,0,0,1.41,2.92c0,.32-.1.77-.14,1.3a19.58,19.58,0,0,0,.07,3.13,12.7,12.7,0,0,0,.3,2.07,8.47,8.47,0,0,0,1.38,3c1.39,1.84,2.73,1.62,3.13,3a4.21,4.21,0,0,1-.38,2.44,19.68,19.68,0,0,1-1.92,4c-1.26,2.21-1.68,2.75-1.82,3.93a2.94,2.94,0,0,0,.45,2.37,2.06,2.06,0,0,0,1.69.77c1.15-.14,1.49-1.63,1.89-1.53.7.17,1.37,5.19-1.05,8.25a5.69,5.69,0,0,0-1.46,2.53c-.27,1.31.31,1.7.08,2.75-.33,1.48-1.65,1.41-3.46,3.45a17.46,17.46,0,0,0-2.42,4,23,23,0,0,0-1.36,3c-1.12,3.13-.54,4-1.67,5.86a6.76,6.76,0,0,1-1.87,2.38c-.41.28-.78.43-.8.74,0,.59,1.26.64,1.78,1.56.69,1.25-.28,3.78-1.73,5.22-.38.37-.8.69-.72,1,.14.6,1.67.26,2.45.89,1.61,1.31.29,7-3.12,11.16a20.08,20.08,0,0,1-7.1,5.35c-2.3,1-4.59,1.43-8,3.53-.86.53-1.55,1-2,1.34a10,10,0,0,1-2.27.79,13.19,13.19,0,0,1-1.61.23c-.63.06-1.3.1-1.47.09-1.57-.08-3.78-6.46-4.11-15.22-.21-5.62.52-7.78.92-8.79a48.06,48.06,0,0,1,2.75-5.2c1.87-3.28,2.31-3.66,3-5.35a19.57,19.57,0,0,0,1.3-5.73c.26-3.29.44-5.6-.82-7.91-2.31-4.23-8.16-6-12.31-4.85a6.13,6.13,0,0,0-1,.38,13.28,13.28,0,0,0-2.8,1.75c-.6.47-1.37,1.15-1.37,1.15A24.41,24.41,0,0,0,183,97a22,22,0,0,0-3.84,6.41l0,.09c-.07.19-.18.52-1.35,3.89-.78,2.26-.63,3.35-1.27,3.52a2.46,2.46,0,0,1-.92-.15,9.35,9.35,0,0,1-1.37-.46,19.81,19.81,0,0,1-3.19-1.15l-.63-.3c-1.65-.92-1.49-4.07-1.93-8.64a25.52,25.52,0,0,0-1.28-6.95c-.42-1.09-.72-1.47-1.23-3a6.38,6.38,0,0,0-1.14-2.6,4.38,4.38,0,0,0-1.91-1.07c-2.32-.9-2.18-1.74-5.58-3.82-2.47-1.51-2.57-1.07-3.29-1.91-.89-1-.87-1.86-1.9-5.2-.87-2.81-.93-2.37-1.22-3.63a21.27,21.27,0,0,1-.34-6.42c.22-3.47.86-4.57,0-5.77a4.46,4.46,0,0,0-3-1.5c-4.67-1-5.84-3.7-10.22-5.89-1-.49-8.75-4.25-16.46-1.22a17.17,17.17,0,0,0-8.67,7.11C110.1,62.24,109.77,66.21,108.46,66.18Z"/><path class="cls-3" d="M127.66,167.89c-2.38,1.63-4.24,3.21-4.24,3.21a23.16,23.16,0,0,1-3.33,2.21,3.56,3.56,0,0,1-.64.3c-.68.24-1.25.16-3.17.7-2.44.69-2.73,1.13-4,1.24-1.13.09-3,.07-3,.07a79.12,79.12,0,0,0-12.47,1.11c-2.31.4-1.53.43-8,2-5.62,1.37-5.54,1.18-9.8,2.23-3.83.94-8.44,2.2-13.58,4a39.91,39.91,0,0,0-5.12,2,28.77,28.77,0,0,0-8.46,7.12,44.47,44.47,0,0,0-5.57,8.24c-16.46,32.07-24.69,48.1-27.6,54.1,0,0-6.12,12.61-10.23,20.57l-2.69,5.22c-.63,1.22-2.5,4.85-3.11,6-1.69,2.36-3.37,5.37-2.29,7.21.44.75,1.14,1,2.06,1.47,2.81,1.5,3.41,3.41,5.79,5.57,3.86,3.5,7.63,5.48,12.47,8a50.12,50.12,0,0,0,4.67,2.23c3.29,1.34,3.7,1,7.57,2.45,3.43,1.25,3.94,1.78,5.35,1.56a5.9,5.9,0,0,0,4.23-3.12c.9-1.88-.16-2.79,0-6,.05-1.05.23-4.87,2.67-7.57,1.73-1.92,2.43-.88,5.34-3.34,2.43-2.05,1.75-2.61,4.9-5.57,1-1,1.76-1.52,1.78-2.45,0-1.1-1-1.74-2.23-3.11a31.6,31.6,0,0,1-3.11-4.9c-1.82-3.14-2.91-5.31-3.34-6.23a12.46,12.46,0,0,1-1.14-2.8c-.3-2.95,2.4-6.12,5.37-7.44.65-.29,1.46-.56,7.82-.56,5,0,5,.17,7.76.11,4.19-.1,4.91-.48,9.53-.66,3.57-.14,3.31.08,7.07,0a110.28,110.28,0,0,0,14.57-.9c2-.29,3.8-.64,5.83.24a9,9,0,0,1,3.75,3.32c4.86,6.85,4.67,13.46,7.34,13.81,1.06.13,1.24-.88,3.34-1.12s2.72.65,4.9.89c2.59.3,3.19-.77,6.46-1.11a20.27,20.27,0,0,1,6,.45c9.82,1.56,10.21-.09,15.58,1.55,2.95.91,2.24,1.22,9.8,4.46,4.56,2,4.49,1.69,7.79,3.11,5.2,2.25,10.07,5.06,19.81,10.69l3.12,1.78c2.2,1.25,3.69,2,4,2.23,3.82,2.12,7,7,7.53,7.69,4.59,6.76,15.33,14.28,35.44,28.38,1,.73,14.3,10,15.36,8.68.28-.35-.51-1.23-1.56-4.23-.74-2.1-1.73-4.93-.89-5.57.66-.5,2.14.57,3.12,1.12,3.52,2,7.33,1.15,13.13,0,14.05-2.81,17.33-5.49,22.16-4.46a16.27,16.27,0,0,0,6,.23c4.1.49,4.35,1.25,7.49,1.28a36.75,36.75,0,0,0,6.67-.72,11.52,11.52,0,0,0,2.51-.52c2.23-1.54.74-7.38-3.09-20.53-2.7-9.27-3.33-11-4.45-15.58-4.89-19.9-4-25.49-8-45.64-3.68-18.3-9.13-37-9.13-37a106.13,106.13,0,0,0-9.79-8,45.86,45.86,0,0,0-4-2.68,35.3,35.3,0,0,0-8.46-3.34c-9.53-2.66-14.29-4-16.7-5.12-3.18-1.48-3.65-2.12-8.68-4.45-2.66-1.23-3.52-1.51-6.9-3.12-4.21-2-3.31-1.84-6.9-3.56-4-1.89-5.43-2.27-6.84-4.11A12.78,12.78,0,0,1,219.6,178c-1.66-4.24-1.33-5.76-2.4-8.72a20.12,20.12,0,0,0-4.47-7c-2.65-2.66-6.7-5.08-7.81-4.11-.89.78,1.18,2.84,1.16,7.66a20.36,20.36,0,0,1-1.19,6.46,9.48,9.48,0,0,1-1.33,2.89,8.86,8.86,0,0,1-4.46,2.9c-3.69,1.24-7.21,3-10.91,4.23-7.56,2.56-8.47,3-9.79,3.78a32.82,32.82,0,0,0-6,5.12,42.65,42.65,0,0,0-3.91,4.55A62.42,62.42,0,0,0,163,204.8c-1.8,3.52-2.51,5.52-3.21,5.39s.08-3.12-1.84-5.85c-1.49-2.11-3.35-1.57-5.35-4.23-.7-.94-.47-1-1.64-2.76s-1.64-2.11-3-3.9c-2.06-2.76-1.69-3-3.32-4.93-.93-1.11-.95-.91-3.33-3.32s-3.37-3.44-3.9-4.47a12.17,12.17,0,0,1-1.14-5.16,24.11,24.11,0,0,1,.46-4.93c.71-4.76,1.36-6.26.6-6.86-.52-.4-1.51,0-3.47.78A31.68,31.68,0,0,0,127.66,167.89Z"/><path class="cls-5" d="M22.38,311c-2.8.7-2.94,5.69-6.57,15.94-1,2.83-2,5.16-2.67,6.8L13,339.51l3,9.11,5,6.14,9.11,6.88,5.58,2.78a62.52,62.52,0,0,0,6.69.19,22.93,22.93,0,0,0,6.06-.6,14.08,14.08,0,0,0,7.22-5.35l1.74-5,.5-5,7.69,2.57a26.48,26.48,0,0,0,23-3.87l12.72-9.16,4.91-6.76,8.6-1.63,9,1.22,7.37,2.05,2.21,1.12,1.48,2.16,18.43,6.55L161,345h4.51l19.25-3,17.22,16c4.81,5.11,6.94,6.21,7.82,5.67s.39-3.19,1.9-3.9c.54-.26,1,0,1.69,0,1.4,0,2.48.19,5.41.35,2.22.12,5.4.24,9.36.18l19.93.69,20.24,12.14,23.35,24.58,2-3.72a152.32,152.32,0,0,0,2.93-15.94A199.23,199.23,0,0,0,298,357.79c.15-5.48.44-13.37,1-23.21l-2-.68-10.24.41-13.4.77c-1.62.46-4,1.09-7,1.64-6.87,1.29-10.17.94-11.75,3.25-.57.83-1.12,2.29-.52,4.94-3.05-1.27-16.09-6.77-22.78-12.09-.47-.37-3.12-2.5-6.48-5.41-.53-.47-2.18-1.9-5.37-4.81-4.68-4.26-4.91-4.61-8.53-7.9-3.08-2.8-5.23-4.75-8.29-7.24-1.85-1.51-4.13-3.35-7.2-5.49a101.5,101.5,0,0,0-10.71-6.51l-15.5-8a69.88,69.88,0,0,0-16.61-7.22,72.12,72.12,0,0,0-36.29-.66c.93,3.32,2.78,7.69,6.8,10.11,5.82,3.49,13.72,1.39,13.75,1.86,0,.06-.12.24-5.95,1.3l-3.16.56a67.87,67.87,0,0,1-15.8,2c-9-.23-15.72,1.7-16.17,4.09a9.29,9.29,0,0,0,.19,4.09c.35,1.09.79,1.6.56,2.23A2.56,2.56,0,0,1,93.45,307c-1.53-1,.67-4.61-.86-7.91-1.11-2.39-3.68-3.56-5.65-4.18l-6.88.93c-6.55,4.54-10.12,4.53-12.19,3.52-1.19-.59-.84-1-5.43-5.57,0,0-.53-.53-5.27-5.07a14.35,14.35,0,0,0-1.78,2.45c-1,1.72-.91,2.41-1.91,3.74a10.17,10.17,0,0,1-2.32,2.22c-1.08.77-1.38.7-2.6,1.54a10.33,10.33,0,0,0-2.33,2,9.71,9.71,0,0,0-1.86,3.71,24,24,0,0,0-.55,3.91c-.4,2.77-.6,4.15-1.34,5.36a7.31,7.31,0,0,1-4.23,3.12c-1.12.29-2.84.39-9.51-2.86C23.56,311.39,23.41,310.75,22.38,311Z"/><path class="cls-6" d="M130.06,88.66s-2.2.36-2.64,1.55c-.14.38,0,.74.22,1.47a3.94,3.94,0,0,0,1.47,2.48,3.81,3.81,0,0,0,1.61.53,4.53,4.53,0,0,1-3,1.32,3.33,3.33,0,0,1-1.21-.2,3.07,3.07,0,0,1-1.39-1.11,2.77,2.77,0,0,1-.63-1.39,3.18,3.18,0,0,1,.63-2.15C126.58,89.06,130,88.6,130.06,88.66Z"/><path class="cls-7" d="M117.72,83.76a6.53,6.53,0,0,1-1.19-.78,10.16,10.16,0,0,1-1.78-1.46c-.32-.45-.71-1-.57-1.52.09-.35.38-.57,2.44-1.45,1.14-.49,1.71-.74,2.12-.86a10.92,10.92,0,0,1,3-.54,17.63,17.63,0,0,1,3.45.52,24.52,24.52,0,0,0,3.9.45c1.75,0,2.19-.27,3.53,0a13,13,0,0,1,2.24.8c2.74,1.07,4.11,1.61,4.48,1.67,1.54.24,2.08-.11,3.45.44a3.54,3.54,0,0,1,1.55,1.31c.41.54.25.6.73,1.22.23.31.52.62.46,1,0,.12-.07,1-.09,1s0,0,0-.06a43.62,43.62,0,0,0-6.8-2.1c-2.21-.43-1.68,0-6.46-.35a78,78,0,0,0-8.27-.4c-2.29.08-3,.36-3.47.76a2.46,2.46,0,0,1-1.29.73A2.69,2.69,0,0,1,117.72,83.76Z"/><path class="cls-8" d="M47.55,270.18A40.58,40.58,0,0,0,56.32,287l8.31,9.18,1.68,3.35,7.25-.93,6.5-2.79,6.88-.93,5,2.6,1.86,4.65,1.67-4.09,5.39-2.23,7.25-1.11h7.44l8.55-1.68q-3.16-5.57-6.32-11.15-4.38-8.92-8.74-17.84L103.72,262l-29.42.37L54,263.9l-5.14,2.19C48.41,267.45,48,268.82,47.55,270.18Z"/><path class="cls-7" d="M111.6,84.66c.23-.23,0-1-.82-2.18L109.72,81l-1.12-1.28a3.35,3.35,0,0,0-.5-.45,2.51,2.51,0,0,0-.59-.32l-.78.08a9.21,9.21,0,0,0-.4.83,8.76,8.76,0,0,0-.59,2.35l.14,1.95,1,2.48,1.13,1.2.1-.37.5-1.82.6-.81a1,1,0,0,1,.46-.36,1.19,1.19,0,0,1,.72-.06C111,84.73,111.44,84.82,111.6,84.66Z"/><path class="cls-9" d="M112.27,90.14a25.67,25.67,0,0,0-3.82.11"/><path class="cls-9" d="M105.92,90.52a.6.6,0,0,1,.84,0"/><path class="cls-9" d="M111.94,90.38a3.85,3.85,0,0,0-1.5-.84"/><path class="cls-10" d="M111.94,86.05a5.65,5.65,0,0,1,1.16,3.33c0,1.22-.5,2.09-2.16,4.66-2.11,3.27-2.43,3.65-3.16,4.83-1.43,2.31-.94,2.49-2.5,5.66-2.21,4.49-3.82,5.4-4.49,9A5.58,5.58,0,0,0,101,117c.8,1.73,2.58,2.43,4,3,1.72.68,4.15,1.18,4.49.5s-1.49-1.71-1.16-2.49,2.59-.92,4.49-.17c2.26.89,2.26,2.36,4.16,2.83a4.64,4.64,0,0,0,4.66-1.5c1.22-1.62.61-3.71.33-4.66a7.61,7.61,0,0,0-2.66-3.83"/><path class="cls-11" d="M106.68,130.17c.78-2.14,1.33-2.6,1.69-2.6a.58.58,0,0,0,.31,0,14.61,14.61,0,0,0,1.8-.59c2-.8,6.6.47,7.32.67,4.27,1.21,3.37,1.42,6,2a70.58,70.58,0,0,0,8.32,1.5c.95.07,1.68.09,1.84.49.3.8-2,2.12-5.33,4.67-4.74,3.62-4.75,4.49-8,6.32,0,0-3.81,2.32-5.79,2.21a3.84,3.84,0,0,1-.64-.1,3.58,3.58,0,0,1-.73-.28,4.41,4.41,0,0,1-2.16-3.49c-.1-1.41.69-1.75.83-4,.06-1,.13-2.31-.66-3-.51-.44-1-.22-1.83-.49a4.9,4.9,0,0,1-2.58-2.2Z"/><path class="cls-12" d="M111.69,136.24a4.26,4.26,0,0,0,1.75.91,5.84,5.84,0,0,0,3.16-.34c2.15-.59,2.05-.12,4.49-.66a37.56,37.56,0,0,0,4.83-1.67,48.07,48.07,0,0,0,5.66-2.33s-.54.17-1.67.34a13.58,13.58,0,0,1-2.49.16c-1.9-.06-2.54-.53-4.66-.83a37.29,37.29,0,0,0-3.83-.17c-3.11-.05-3.8,0-4.18.12l-.15,0c-.46.17-1,.37-1.17.46a4.49,4.49,0,0,0-1.29.9l-1,1.71Z"/><path class="cls-13" d="M140.06,92.17a45.87,45.87,0,0,1-6.91,1.8c-1.46.25-3.08.41-4.32-.4a2.62,2.62,0,0,1,.73-4.91c.37,0,.9.14,1.54.27a33.53,33.53,0,0,1,5.9,1.83C137.81,91.09,138.86,91.55,140.06,92.17Z"/><path class="cls-14" d="M130.77,90.86a3.4,3.4,0,0,1-.62,2.2,2.22,2.22,0,0,1-.56.55,1.46,1.46,0,0,1-1.41-.33,1.83,1.83,0,0,1-.53-.69,3.17,3.17,0,0,1,.42-3.31,1.62,1.62,0,0,1,.9-.6,1.19,1.19,0,0,1,.74.09C130.63,89.19,130.76,90.74,130.77,90.86Z"/><path class="cls-9" d="M112,90.15c-1.66-.28-3.36.66-5,.34"/><path class="cls-15" d="M111.43,90.32a6.57,6.57,0,0,0-2.5,0,4.22,4.22,0,0,1-1.79.18c-.23-.06-.29-.1-.51,0,.2-.14.45.08.67.19s.74,0,1.11.08.84.3,1.18.09"/><path class="cls-16" d="M109.58,118.13l1.34-.23a2.4,2.4,0,0,1,.65,0,2.27,2.27,0,0,1,.5.17l.61.26a1.44,1.44,0,0,1,.52.31.23.23,0,0,1,.06.12.24.24,0,0,1-.13.21,6.7,6.7,0,0,1-1,.74,2.15,2.15,0,0,1-1.23.28,2.94,2.94,0,0,1-1.32-.63C109.06,119,108.79,118.26,109.58,118.13Z"/><path class="cls-10" d="M109.6,122.05a19.73,19.73,0,0,1,3.84.17,7.49,7.49,0,0,1,2.2.5c.34.16.66.37,1,.53a15.28,15.28,0,0,0,3.36.9c1.47.36,2.87,1,4.33,1.39,2.3.64,4.71.75,7,1.3a2.47,2.47,0,0,1,1.09.46c.13.11.24.23.38.33a3.35,3.35,0,0,0,.47.21,5.52,5.52,0,0,1,1.66,1.23h-.32"/><path class="cls-10" d="M108.25,126c.39-1,.77-2.1,1.15-3.15,0,0,0,0,0,0s0,0,0,0"/><path class="cls-10" d="M109.06,126.27a8,8,0,0,1,.89-3"/><path class="cls-10" d="M109.71,126a11.45,11.45,0,0,1,.52-1.63,1.79,1.79,0,0,1,.43-.71.1.1,0,0,1,0,.1"/><path class="cls-10" d="M110.92,125.58l-.06.1a7.15,7.15,0,0,1,1.32-2.73l0,.08"/><path class="cls-10" d="M111.89,126a8.4,8.4,0,0,1,.71-2.23,1.29,1.29,0,0,1,.53-.66"/><path class="cls-10" d="M112.82,126.24a5.18,5.18,0,0,1,1-2.53.36.36,0,0,1,.22-.17"/><path class="cls-10" d="M113.82,126.21a9.09,9.09,0,0,1,1.39-2.87s.12-.06.11,0"/><path class="cls-10" d="M114.85,126l-.06.13a4.93,4.93,0,0,1,1-2.36.09.09,0,0,1,0,0,0,0,0,0,1,0,0"/><path class="cls-10" d="M115.22,126.64c.35-.86.7-1.72,1.09-2.57l.19-.12a.07.07,0,0,1,.06,0s0,0,0,0"/><path class="cls-10" d="M115.54,126.74a6.72,6.72,0,0,1,1.54-2.66s.1-.07.12,0"/><path class="cls-10" d="M116.47,126.81a6.87,6.87,0,0,1,1.38-2.42.86.86,0,0,1,.35-.28"/><path class="cls-10" d="M117.23,127.07s0-.08,0-.13a5.89,5.89,0,0,1,1.5-2.44"/><path class="cls-10" d="M117.81,127.33a6,6,0,0,1,.84-1.94,2,2,0,0,1,.42-.49,2.05,2.05,0,0,1,.46-.25"/><path class="cls-10" d="M118.44,127.41a4.5,4.5,0,0,1,.94-1.62l.52-.65a.6.6,0,0,1,.39-.28"/><path class="cls-10" d="M119.21,127.47a7.65,7.65,0,0,1,1.17-1.92,1.12,1.12,0,0,1,.51-.35"/><path class="cls-10" d="M119.82,127.78a8.06,8.06,0,0,1,1.79-2.39s0,0,0,0,0,0,0,0"/><path class="cls-10" d="M120.77,127.72a4.8,4.8,0,0,1,1.32-1.86s.14,0,.13,0"/><path class="cls-10" d="M121.37,128a4.58,4.58,0,0,1,1.06-2c.07-.07.18-.15.26-.08"/><path class="cls-10" d="M122,128.18a8.2,8.2,0,0,1,1.26-2c.06-.07.13-.14.21-.13v.1"/><path class="cls-10" d="M122.42,128.71a8.26,8.26,0,0,1,1.47-2.47.12.12,0,0,1,0,.14"/><path class="cls-10" d="M123.11,128.62a9.38,9.38,0,0,1,1.16-2,.16.16,0,0,1,.07-.07.06.06,0,0,1,.08,0"/><path class="cls-10" d="M124,128.65a6,6,0,0,1,1.15-2,.71.71,0,0,1,.33-.24"/><path class="cls-10" d="M124.48,128.76a.61.61,0,0,1-.15.26,5.6,5.6,0,0,1,1.29-2.09,1.64,1.64,0,0,1,.53-.41l0,.09"/><path class="cls-10" d="M125.13,129.19a3.41,3.41,0,0,1,1.34-2.14"/><path class="cls-10" d="M125.72,129.36l1.27-2.19c.05-.1.14-.21.25-.18"/><path class="cls-10" d="M126.38,129.45a7.29,7.29,0,0,1,1.23-2.17.31.31,0,0,1,.25-.15"/><path class="cls-10" d="M128.1,127.41a11.09,11.09,0,0,1-.5,1.88"/><path class="cls-10" d="M128.53,127.27l.07,2.61"/><path class="cls-10" d="M129.09,127.47l.16,2s0,0,0,0,0,0,0,0"/><path class="cls-10" d="M129.69,127.16a7.58,7.58,0,0,1,.5,2.87v-.41"/><path class="cls-10" d="M130.48,127.47c.21.78.39,1.57.56,2.36l0-.12"/><path class="cls-10" d="M131.3,127.63a14.83,14.83,0,0,1,.66,2.05.23.23,0,0,0,0-.2"/><path class="cls-10" d="M132.08,128a12,12,0,0,1,.76,2.07"/><path class="cls-10" d="M132.76,128.44c.1,0,.14.14.16.24a15,15,0,0,1,.36,1.89l-.06-.26"/><path class="cls-10" d="M133.34,128.59A28.29,28.29,0,0,1,134,132a.13.13,0,0,1-.13-.09"/><path class="cls-10" d="M134,129c0,1,.45,2,.46,3a.32.32,0,0,1-.06-.25"/><path class="cls-10" d="M134.64,129.39l.4,2"/><path class="cls-10" d="M135.24,129.79a5.89,5.89,0,0,1,.37,1.61"/><path class="cls-10" d="M107.86,126.77c.17-.39.36-.77.56-1.15"/><path class="cls-10" d="M109.1,126.84l.07-.75"/><path class="cls-10" d="M108.73,126.75a4.12,4.12,0,0,1,.16-1.81c0-.06.06-.12.11-.11"/><path class="cls-10" d="M109.68,126.32a3.8,3.8,0,0,1,1-3.22l-.07.16"/><path class="cls-10" d="M110.14,126a4.57,4.57,0,0,1,1.32-2.84s0,0,0,.09"/><path class="cls-10" d="M111.33,126a6.57,6.57,0,0,1,1.09-2.93l0,.12"/><path class="cls-10" d="M113.18,123.8a3.63,3.63,0,0,0-.52,1.36c-.09.48-.13,1-.24,1.45v-.11"/><path class="cls-10" d="M114.57,123.56a8.09,8.09,0,0,0-.54,2.07v-.22"/><path class="cls-10" d="M115.07,124.26a8.34,8.34,0,0,0-.4,1.78.06.06,0,0,0,0-.08"/><path class="cls-10" d="M114.49,125.63a5.4,5.4,0,0,0-.06,1.5"/><path class="cls-10" d="M115.32,125.15a14.12,14.12,0,0,0-.17,1.95"/><path class="cls-10" d="M116.36,125.49a4.2,4.2,0,0,0-.28,2.27"/><path class="cls-10" d="M117.4,125.52a1.15,1.15,0,0,0-.3.69c-.11.54-.24,1.07-.39,1.6"/><path class="cls-10" d="M117.11,128.44a7.12,7.12,0,0,1,1-2.62"/><path class="cls-10" d="M118.1,128A4,4,0,0,1,119,126"/><path class="cls-10" d="M120.84,125a1.47,1.47,0,0,0-.5.55,7.6,7.6,0,0,0-1.16,2.5"/><path class="cls-10" d="M121.82,124.62a12.58,12.58,0,0,0-1.4,3.39"/><path class="cls-10" d="M121.76,125.84a5.75,5.75,0,0,0-1.44,2.84"/><path class="cls-10" d="M122.07,126.51a1.21,1.21,0,0,0-.57.76,13.74,13.74,0,0,0-.57,1.75"/><path class="cls-10" d="M122.45,127.3a5.11,5.11,0,0,0-1,1.66"/><path class="cls-10" d="M123.77,126.79a5.58,5.58,0,0,0-1.24,2.4"/><path class="cls-10" d="M124.09,127.21c-.28.7-.54,1.41-.8,2.12"/><path class="cls-10" d="M124.85,126.93a2,2,0,0,0-.4.74q-.24.69-.45,1.38"/><path class="cls-10" d="M125.71,127a15.06,15.06,0,0,0-1.16,2.26"/><path class="cls-10" d="M126.58,126.92a23,23,0,0,1-1.25,2.6"/><path class="cls-10" d="M126.71,128a3.87,3.87,0,0,0-.54,2"/><path class="cls-10" d="M127.57,127.21l-.74,2.5"/><path class="cls-10" d="M127.9,127.26a9.79,9.79,0,0,0-.73,2.76"/><path class="cls-10" d="M128.48,127.41a5.58,5.58,0,0,0-.39,2.21.51.51,0,0,0,.08.32"/><path class="cls-10" d="M129.1,127.64a5.24,5.24,0,0,0-.26,2.15"/><path class="cls-10" d="M129.54,127.44a8.38,8.38,0,0,0-.18,2.34,1,1,0,0,0,.1.47"/><path class="cls-10" d="M130,127.67a11.61,11.61,0,0,0,0,2.7"/><path class="cls-10" d="M130.92,127.84a2.17,2.17,0,0,0-.24.88c-.07.53-.14,1.07-.16,1.61a.82.82,0,0,0,.06.44"/><path class="cls-10" d="M131.57,127.87a6.83,6.83,0,0,0,.39,1.42,7.93,7.93,0,0,1,.17,1.88"/><path class="cls-10" d="M132.37,128.9a15.71,15.71,0,0,1,.47,2.81"/><path class="cls-10" d="M133.3,129.56l.11,1.9"/><path class="cls-10" d="M131.2,128.62c-.07.68.18,1.38.07,2.06l-.06-.08"/><path class="cls-10" d="M131.47,129.16a6,6,0,0,1,.21,1.92"/><path class="cls-15" d="M106.42,128.18a6.15,6.15,0,0,1,.76-2.11,13,13,0,0,0,1-1.65,6,6,0,0,0,.35-1.4l.28-1.65c0-.08,0-.2-.09-.17"/><path class="cls-17" d="M140.48,95.27a9.32,9.32,0,0,1-1.78,1.38c-.1.06-.09.06-2.15,1.16a7.82,7.82,0,0,1-1.54.69,4,4,0,0,1-1,.2c-.62,0-.82.2-3.07.72s-3.24.73-4.3.51a5.87,5.87,0,0,1-1.54-.56,3.28,3.28,0,0,1-.3-2,3.21,3.21,0,0,1,1-1.78,2,2,0,0,1,1-.66c.52-.12.62.19,1.46.37a8.58,8.58,0,0,0,2.54,0l.27,0,.59,0a6.8,6.8,0,0,1,.81.07c.77.11,1.91-.31,3.78-.73a16.71,16.71,0,0,0,2-.66l3.45-1.27c.21-.08.56-.06.55.21a.41.41,0,0,1-.08.23c-.67.89.16.11-1,1.4A9.15,9.15,0,0,1,140.48,95.27Z"/><path class="cls-18" d="M113.9,146.22a4.19,4.19,0,0,1,2.07,1.6c.63,1,.5,2,.45,3.56a19.68,19.68,0,0,0,.35,5.61,9,9,0,0,0,3.55,4.7c2.38,1.67,4.82,1.7,7.11,1.72a24.44,24.44,0,0,0,9.17-1.95c3.38-1.22,3-1.58,5.73-2.52,3.81-1.29,5.68-1,10.32-1.72a54.77,54.77,0,0,0,8.83-2.18"/><path class="cls-19" d="M183.84,100a6.54,6.54,0,0,1,.92-3.67c.31-.49.64-.81,3-2.4a39.2,39.2,0,0,1,3.32-2.18,9.69,9.69,0,0,1,5.85-.35,8.66,8.66,0,0,1,4.35,2.3,9.07,9.07,0,0,1,2.07,3.55,12.36,12.36,0,0,1,.57,2.64,18.94,18.94,0,0,1,.12,4,19.19,19.19,0,0,1-1,4.93,22.15,22.15,0,0,1-2.39,4.48c-2.18,3.45-3.28,5.18-4.71,6.41a16.65,16.65,0,0,1-6.42,3.33c-2.85.84-5,1.46-7,.34a6.71,6.71,0,0,1-3-4.36,6.27,6.27,0,0,1,.57-4.47c1.27-2,3-1.39,4.93-3.44s2.6-5.11,1.5-6.65c-.62-.85-1.51-.74-2.18-2A4.7,4.7,0,0,1,183.84,100Z"/><path class="cls-20" d="M201.51,102.74a12.48,12.48,0,0,1-1.51,4.5c-.37.68-.79,1.33-1.21,2-2.09,3.22-4.59,6.48-8.19,7.84.47-1.94,2.59-2.91,3.91-4.4a10.45,10.45,0,0,0,1.56-2.58,36,36,0,0,0,2.45-7.23c.28-1.28.5-2.59.65-3.89.1-.89-.08-2.27.51-2.95C201.3,97.48,201.74,100.68,201.51,102.74Z"/><path class="cls-21" d="M186.7,104.45c-1,0-2.38,2.5-1.72,4.13.26.61.69.85.58,1.15-.25.63-2.33-.24-3.21.68a2.68,2.68,0,0,0,.46,3.44c1.09.91,2.87.34,3.55.12,1.34-.44,1.64-1.08,2.75-1,.86,0,1.08.43,1.84.34a3.26,3.26,0,0,0,2-1.26,6.1,6.1,0,0,0,1.83-4.24c0-1.12-.75-2.2-2.18-4.36-1.19-1.81-1.84-2.77-2.41-2.64s-1.09,1.55-.8,2.64c.19.7.61,1,.46,1.38s-1,.69-1.61.57C187.33,105.2,187.25,104.46,186.7,104.45Z"/><path class="cls-22" d="M148.44,160.09c0,1,1.44,1.31,2.16,2,.23.23.39.52.64.73a2.44,2.44,0,0,0,.93.45,18.87,18.87,0,0,0,14.18-1.17"/><path class="cls-22" d="M143.59,162.73a28,28,0,0,0,24.73,10.34,2.22,2.22,0,0,0-1.23-.7"/><path class="cls-23" d="M158.57,174.81a25.45,25.45,0,0,0,9,5.74.94.94,0,0,1,.39.22,1,1,0,0,1,.11.81c-.42,2.51-.85,5-1.27,7.53a28.79,28.79,0,0,1-1.05,4.7,7.27,7.27,0,0,0-.52,2,1.87,1.87,0,0,0,.84,1.75,4.7,4.7,0,0,0,2.4-3.63c.13-1.4-.37-2.88.19-4.17a6.94,6.94,0,0,1,1-1.47,15.94,15.94,0,0,0,2.93-7.64,48.44,48.44,0,0,0,.14-8.26c-3.26-.13-6.8,0-10.07-.14-1,0-2.21,0-2.86.78C159.41,173.48,158.94,174.3,158.57,174.81Z"/><path class="cls-24" d="M299.4,412.55a61.55,61.55,0,0,1,4.13,17c.63,6.57-.16,9.85-2.75,26.59-.91,5.89-5.86,39.63-4.58,31.19L76.51,489.8q8.63-12,17.24-24L107.1,443l10.7-7.65,11.92-7.94,12.66-8.48q2.61-7.08,5.23-14.15a155.13,155.13,0,0,1,13.6-12.84c4-3.31,7.83-6.2,11.49-8.72l11.8-5.95L208.43,362a27,27,0,0,1,7.82-3.39,27.9,27.9,0,0,1,14.67.3l17.2,2.2,25.14,13.39A93.59,93.59,0,0,1,294.82,402,91.46,91.46,0,0,1,299.4,412.55Z"/><polygon class="cls-25" points="157.61 485.01 181.54 464.83 208.14 443.73 229.24 437.31 236.12 446.48 249.88 440.52 257.21 461.16 257.21 473.54 252.63 480.88 232.45 479.04 217.78 487.47 157.61 487.47 157.61 485.01"/><polygon class="cls-26" points="287.02 413.92 271.43 464.37 276.48 471.25 273.72 477.21 265.93 480.88 268.22 489.87 296.2 487.31 291.61 409.34 287.02 413.92"/><polygon class="cls-27" points="108.17 459.32 98.54 470.79 103.35 487.47 111.84 487.7 107.25 473.51 108.17 459.32"/><polygon class="cls-28" points="124.12 446.94 168.25 446.94 178.34 437.31 176.04 424.26 203.1 409.34 198.97 401.08 150.82 424.01 124.12 449.61 124.12 446.94"/></g></g></svg>